<svg fill="none" height="251" width="501" xmlns="http://www.w3.org/2000/svg" xmlns:xlink="http://www.w3.org/1999/xlink"><clipPath id="a"><path d="m0 0h499.991v249.996h-499.991z" transform="translate(.15 .65)"/></clipPath><mask id="b" height="874" maskUnits="userSpaceOnUse" width="874" x="-187" y="102"><circle cx="249.936" cy="539.321" fill="#cde7ff" r="436.311" stroke="#000" stroke-width=".278"/></mask><mask id="c" fill="#fff"><path d="m584.64 203.325c-89.565-89.571-208.677-138.903-335.35-138.903-126.674 0-245.775 49.332-335.349 138.903-89.572 89.575-138.904 208.674-138.904 335.348 0 126.675 49.334 245.785 138.904 335.35 89.572 89.564 208.675 138.907 335.349 138.907 126.675 0 245.785-49.343 335.35-138.907 89.566-89.565 138.902-208.675 138.902-335.35 0-126.674-49.336-245.773-138.902-335.348zm-119.265 146.511 6.123 4.093 3.084 2.399c1.492 1.144 3.299 3.497 4.029 5.236l.545 1.266c.737 1.741 2.363 4.292 3.629 5.7l8.195 9.157 5.681 7.723c1.113 1.523 1.701 4.265 1.304 6.107l-.038.151c-.414 1.853-1.87 4.377-3.296 5.614l-2.809 2.524c-1.399 1.258-3.968 1.662-5.698.908l-5.055-2.186c-1.722-.765-3.432-2.871-3.781-4.734l-1.503-7.825c-.349-1.853-1.199-4.793-1.882-6.55l-1.795-4.538c-.681-1.765-2.344-4.255-3.724-5.557l-8.222-7.903s-8.982-7.921-8.982-8.78c0-.854-6.859-9.415-6.859-10.267 0-.538 1.869-4.65 3.249-7.619.804-1.701 2.76-3.903 4.348-4.925l5.35-3.392c1.607-1.021 3.023-.313 3.176 1.577l.302 3.442c.151 1.89-.359 4.82-1.153 6.532l-.567 1.264c-.792 1.72-.416 4.265.851 5.672l.369.445c1.255 1.416 3.545 3.418 5.129 4.466zm27.328-16.114-.046-.021c-1.779-.641-3.488-2.684-3.83-4.545l-.464-2.684c-.339-1.862.672-4.179 2.251-5.18 1.588-.993 4.234-1.109 5.897-.227l1.507.783c1.687.872 2.916 2.722 2.77 4.152-.1 1.228-.232 2.447-.232 2.579 0 .122-1.34 1.923-2.553 3.574-1.143 1.521-3.525 2.212-5.3 1.569zm-105.813 16.219c.605-1.579 2.455-3.545 4.139-4.397l5.868-2.93c1.693-.84 3.772-.161 4.642 1.504l.548 1.069c.869 1.671 1.098 4.213.495 5.68l-1.052 2.638-1.332 3.883c-.606 1.796.406 3.574 2.249 3.98l2.439.538c1.852.407 4.763 1.333 6.493 2.068l4.696 2.006 7.619 3.612c1.702.79 3.705 2.871 4.453 4.591l.122.292c.756 1.73.075 3.962-1.533 4.971l-3.638 2.316c-1.598 1.019-4.413 1.834-6.304 1.806a1185.02 1185.02 0 0 1 -7.844-.123c-1.891-.036-4.913-.502-6.767-.908-1.966-.462-4.083-.926-4.083-.926l-6.031-.926c-1.871-.277-4.593.424-6.105 1.577l-2.835 2.203-6.219 4.423c-1.533 1.097-4.272 1.693-6.126 1.304l-5.141-1.049c-1.852-.377-4.253-1.937-5.368-3.458l-1.247-1.74c-1.116-1.531-1.873-4.298-1.72-6.181l.111-1.304c.17-1.89.775-4.868 1.399-6.666l.378-1.209c.622-1.796 1.777-4.612 2.631-6.312l.355-.728c.851-1.682 2.08-4.488 2.733-6.258l.604-1.578c.653-1.776 2.468-2.352 4.038-1.294l3.025 2.021c1.56 1.059 3.534 2.741 4.404 3.772.869 1.021 2.74 2.844 4.194 4.065l1.026.872c1.452 1.208 3.51 1.775 4.589 1.235.815-.406 1.626-.84 1.892-1.029.265-.206.717-1.133 1.114-2.079.52-1.202-.057-3.432-1.208-4.916l-.672-.86c-1.146-1.491-1.619-3.986-1.031-5.555zm-462.08 485.027c-1.277-1.38-2.57-4.04-2.892-5.911l-1.2-6.77c-.312-1.873-1.598-4.519-2.874-5.915-1.72-1.876-4.073-4.38-5.908-6.146-1.371-1.323-2.57-3.574-1.457-5.119 1.098-1.514 2.646-3.328 3.933-4.768 1.248-1.435 3.688-1.89 5.397-1.076l3.508 1.646c1.71.796 4.347.567 5.888-.527l4.112-2.897c1.55-1.097 2.686-3.514 2.541-5.406l-1.445-19.407-.501-22.257c-.037-1.888.907-4.593 2.11-6.05l7.04-8.432c1.21-1.443 1.967-4.141 1.69-6.01l-3.58-24.622c-.265-1.87-1.504-4.528-2.758-5.935l-11.427-12.863-9.17-10.53c-1.248-1.435-3.535-3.426-5.114-4.444l-11.948-7.701c-1.586-1.031-3.931-2.976-5.227-4.337l-15.264-16.145c-1.294-1.389-3.079-3.856-3.969-5.521l-5.908-11.077c-.89-1.665-1.898-4.517-2.259-6.369l-1.627-8.64-4.923-20.642c-.433-1.833-1.545-4.669-2.466-6.313l-10.36-18.565c-.907-1.644-2.704-4.101-3.931-5.548-1.997-2.306-4.576-5.519-4.576-6.569 0-1.71-5.71-26.816-5.71-26.816l-7.59-25.833c-.538-1.811-1.795-4.573-2.797-6.172l-8.578-13.59c-.998-1.609-1.612-4.413-1.345-6.296 4.177-28.809 11.124-56.739 20.631-83.477.629-1.777.889-2.098.559-.712l-.597 2.526-2.257 12.891c-.332 1.861.426 4.517 1.684 5.926l2.295 2.597c1.261 1.41 2.722 1.089 3.289-.719l1.956-6.302c.575-1.796 1.02-4.803 1.02-6.693v-7.126c0-1.89-.416-4.904-.936-6.731l-1.399-4.886c-.519-1.815-.388-4.726.313-6.484a437.38 437.38 0 0 1 21.324-45.597c.888-1.663 3.11-3.148 4.925-3.335 1.833-.17 4.613-1.108 6.228-2.11l3.573-2.182c1.615-1.002 3.988-2.911 5.284-4.282 2.977-3.155 7.705-8.27 7.705-8.855 0-.862 8.136-4.926 8.136-6.206 0-.913 6.663-4.818 10.703-7.111 1.651-.926 4.524-1.673 6.415-1.673h2.78c1.888 0 4.3-1.26 5.36-2.82 1.436-2.124 3.166-4.779 3.42-5.528.258-.776 3.811-2.098 6.575-3.024 1.799-.606 3.464.481 3.704 2.352l.41 3.054c.238 1.88 1.96 3.242 3.83 3.024 5.274-.594 14.792-1.72 14.792-2.182 0-.321-.481-1.674-.983-3.024-.613-1.647-1.323-4.502-1.54-6.372l-.297-2.619c-.202-1.881 1.091-3.838 2.897-4.376l1.353-.397c1.806-.548 4.347-2.098 5.643-3.469l3.629-3.815c1.299-1.373.983-3.169-.7-4.002l-.727-.368c-1.692-.842-3.062-2.967-3.062-4.744 0-1.768 1.51-2.962 3.384-2.648l3.723.605c1.872.303 4.717 1.303 6.372 2.23l5.35 3.016 4.754 2.78c1.635.956 2.068 2.968.955 4.507l-1.995 2.786c-1.098 1.536-3.45 3.265-5.237 3.881l-6.143 2.076c-1.798.607-3.695 2.574-4.264 4.37l-1.814 5.878c-.558 1.815.038 4.385 1.332 5.755l5.368 5.729c1.285 1.369 3.838 2.184 5.69 1.776 3.743-.831 9.281-2.148 9.281-2.715 0-.469-.33-2.984-.606-5.168-.263-1.882.22-4.774 1.07-6.446l7.238-14.274 5.086-10.009c.85-1.684 2.703-4.076 4.119-5.314l5.342-4.688c1.418-1.241 3.24-3.631 4.053-5.339 2.447-5.019 7.099-14.478 7.723-15.112.594-.595 6.598-6.19 10.113-9.432 1.38-1.296 2.636-3.858 2.806-5.739l.265-3.241c.162-1.89-1.19-3.071-3.043-2.651l-10.028 2.316c-1.835.43-2.232-.297-.87-1.612l5.246-5.105 9.205-9.715c1.296-1.371 2.894-3.923 3.545-5.69l1.684-4.5c.651-1.778-.21-3.204-1.91-3.204-1.72 0-4.32.926-5.824 2.068l-8.201 6.279-13.745 10.348c-1.502 1.146-4.112 2.723-5.813 3.538l-4.102 1.965c-1.7.822-4.338 2.37-5.888 3.458l-13.224 9.32c-1.56 1.094-4.337 1.974-6.228 1.974h-2.788c-1.892 0-2.439-1.18-1.23-2.636l5.237-6.296c1.22-1.457 3.355-3.637 4.763-4.895l13.703-12.069 11.55-10.7 13.488-11.133 8.847-6.88c1.502-1.162 4.207-2.421 6.06-2.808l3.571-.744c1.853-.38 4.877-.729 6.769-.777l1.928-.046c1.89-.047 2.74 1.287 1.898 2.976l-2.288 4.577c-.85 1.691-.093 3.109 1.684 3.164 1.756.067 4.26-.555 5.557-1.389 1.295-.823 2.825-.037 3.41 1.758l.037.134c.57 1.793.142 4.489-.964 6.021l-.48.665c-1.106 1.528-3.101 3.832-4.462 5.147l-3.222 3.154c-1.361 1.315-2.913 3.849-3.486 5.647l-2.006 6.321c-.567 1.794.389 2.683 2.153 1.975l4.736-1.92 6.476-2.74c1.746-.739 4.678-1.445 6.568-1.615l3.666-.293c1.873-.151 4.84-.823 6.618-1.486l7.277-2.722c1.778-.666 4.47-2.075 6.02-3.148l11.749-8.115 10.095-5.964c1.632-.966 3.912-2.939 5.093-4.413l2.572-3.222c1.172-1.467.765-3.33-.938-4.16l-.481-.228c-1.701-.815-2.315-2.593-1.371-3.951.948-1.359 2.383-3.835 3.223-5.538l3.205-6.552s.519-1.151 1.172-2.569c.661-1.417 2.362-1.598 3.847-.416l2.589 2.107c1.466 1.191 3.978 1.371 5.595.397l4.556-2.73 3.117-1.995c1.591-1.023 4.283-1.26 6.029-.519l7.818 3.316c1.741.737 1.674 1.741-.161 2.222l-5.368 1.445c-1.816.483-4.169 2.07-5.227 3.557-1.069 1.481-.777 3.686.639 4.926 1.412 1.243 1.186 2.908-.526 3.72l-3.223 1.54c-1.719.814-4.279 2.464-5.726 3.667l-9.141 7.657-7.418 7.428c-1.344 1.333-3.772 3.148-5.435 4.074l-7.478 4.114-14.714 9.878c-1.569 1.048-3.885 3.014-5.18 4.385l-2.58 2.722c-1.296 1.382-3.234 3.753-4.32 5.301l-4.028 5.755-5.5 7.694c-1.106 1.542-2.344 4.284-2.77 6.135l-.586 2.524c-.434 1.842.567 4.081 2.213 5.009l4.726 2.654c1.653.92 4.084.586 5.452-.726l2.785-2.712c1.365-1.323 3.38-3.601 4.532-5.122l1.199-1.593c1.153-1.509 3.522-3.225 5.32-3.815l5.7-1.909c1.797-.594 4.575-1.833 6.23-2.768l3.459-1.967c1.653-.933 4.519-1.693 6.408-1.693h9.414c1.89 0 4.763-.747 6.418-1.65l8.346-4.617c1.653-.907 4.524-1.52 6.416-1.369l8.574.728c1.892.141 4.772-.445 6.446-1.335l4.431-2.35c1.665-.883 4.095-2.705 5.418-4.064l3.562-3.648c1.315-1.352 3.744-3.167 5.425-4.036l9.121-4.755c1.682-.878 3.866-2.873 4.888-4.452l4.006-6.229c1.013-1.588 2.94-3.961 4.273-5.304l4.784-4.791c1.342-1.333 1.995-3.887 1.455-5.706l-2.457-8.272-3.129-8.753c-.634-1.786.284-2.683 2.052-2.014l5.783 2.211 13.544 5.729c1.739.727 4.423 2.184 6.002 3.222l1.371.909c1.569 1.058 4.331 2.247 6.183 2.653l7.653 1.722c1.853.407 4.784.19 6.532-.511l5.606-2.201c1.756-.698 4.715-1.182 6.606-1.086l6.234.311c1.871.086 4.732-.586 6.395-1.524l6.872-3.902c1.634-.935 4.433-2.164 6.227-2.78l5.067-1.683c1.794-.594 4.782-1.115 6.674-1.134l6.198-.105c1.892-.019 3.677-1.558 3.988-3.428l.359-2.233c.323-1.861 1.854-4.217 3.44-5.262l2.401-1.579c1.589-1.041 4.388-1.729 6.277-1.533l7.522.786c1.88.197 4.52-.703 5.899-1.999l3.808-3.634c1.363-1.296 1.148-3.129-.491-4.076l-6.265-3.629c-1.633-.943-3.648-3.091-4.499-4.784l-1.435-2.864c-.852-1.693-.037-2.72 1.815-2.304l19.858 4.488c1.842.416 4.736 1.378 6.465 2.146l6.155 2.763c1.739.777 4.27 2.435 5.67 3.705l1.569 1.397c1.39 1.268 2.211 3.799 1.833 5.653l-.531 2.495c-.378 1.852-2.177 2.959-4.022 2.485l-2.347-.614c-1.832-.481-4.822-.529-6.662-.115l-11.296 2.553c-1.853.416-2.155 1.729-.7 2.94l4.555 3.77c1.473 1.201 4.045 2.806 5.774 3.576l3.81 1.7c1.721.776 3.78 2.778 4.575 4.508l3.1 6.628c.794 1.708 2.627 4.083 4.085 5.273l4.129 3.365c1.457 1.199 3.488 3.45 4.527 5.038l3.953 6.04c1.024 1.579 2.958 3.931 4.319 5.254l5.377 5.267c1.363 1.332.947 2.112-.916 1.739l-8.672-1.682c-1.866-.353-4.872-.371-6.734-.019l-6.977 1.302c-1.86.344-1.936 1.181-.159 1.846l3.233 1.216c1.755.674 3.382 2.27 3.628 3.562.237 1.298-1.067 2.705-2.911 3.15l-4.028.962c-1.831.445-4.551 1.76-6.029 2.932l-4.897 3.883c-1.473 1.172-2.251 3.595-1.72 5.414l.84 2.846c.548 1.813-.557 3.358-2.449 3.433l-2.778.131c-1.892.075-4.196 1.484-5.15 3.112l-1.266 2.202c-.947 1.643-2.004 4.472-2.355 6.341l-.218 1.181c-.357 1.854-2.106 2.931-3.921 2.393l-4.998-1.486c-1.817-.538-4.348-2.071-5.673-3.43l-2.713-2.794c-1.314-1.356-.869-2.668 1.004-2.926l6.71-.964c1.869-.273 3.469-2.021 3.582-3.911l.028-.437c.113-1.881-1.134-4.175-2.768-5.122l-4.112-2.371c-1.646-.94-4.463-2.079-6.296-2.55l-5.765-1.505c-1.832-.471-4.858-.822-6.748-.784l-3.857.084c-1.891.038-4.913-.34-6.728-.833l-3.668-.991c-1.825-.492-4.774-.445-6.58.096l-12.268 3.78c-1.817.557-4.348 2.117-5.633 3.495l-6.426 6.789c-1.305 1.37-2.59 3.999-2.873 5.87l-.246 1.577c-.285 1.87-1.495 4.574-2.703 6.02l-4.196 5.012c-1.193 1.455-2.988 3.93-4.009 5.531l-1.89 2.983c-1.022 1.588-3.213 3.593-4.897 4.452l-3.11 1.586c-1.683.871-3.667 2.963-4.434 4.691l-1.495 3.365c-.775 1.739-1.445 4.67-1.501 6.558l-.208 5.994c-.064 1.899 1.352 3.885 3.155 4.44l3.091.964c1.806.558 4.746.57 6.541.021l5.442-1.652c1.798-.538 4.138.263 5.191 1.796 1.069 1.539 2.457 4.223 3.092 6l1.324 3.612c.643 1.784 2.372 4.157 3.875 5.301l1.832 1.407c1.514 1.153 4.084 1.372 5.748.464 3.194-1.737 7.828-4.393 8.098-5.225.277-.804-.538-5.095-1.179-8.215-.397-1.842.019-4.678.964-6.313l1.739-3.056c.937-1.642 1.124-4.383.397-6.144l-1.921-4.782c-.705-1.739-1.198-4.707-1.122-6.597.132-2.909.265-6.669.265-7.059 0-.426 3.44-5.332 5.727-8.555 1.098-1.541 3.429-3.224 5.197-3.741 1.779-.541 3.762.464 4.423 2.229l.569 1.512c.681 1.778.208 4.358-1.039 5.785l-1.269 1.475c-1.245 1.428-2.115 4.101-1.945 5.983l.019.242c.179 1.89 1.682 4.105 3.365 4.945l2.459 1.22c1.682.849 4.593 1.578 6.483 1.616l1.266.039c1.89.055 4.952-.115 6.824-.362l2.855-.387c1.87-.237 4.497.613 5.841 1.93l.641.605c1.361 1.304 2.562 3.383 2.686 4.622.113 1.237-1.183 2.239-2.892 2.239h-9.753c-1.88 0-2.953 1.467-2.385 3.271l.094.301c.548 1.818 1.022 4.81 1.022 6.712v3.419c0 1.885-1.398 2.768-3.099 1.959l-1.088-.509c-1.713-.795-3.822-.682-4.708.263-.88.945-1.227 3.203-.784 5.038l.725 2.975c.447 1.844.107 4.691-.763 6.364l-2.627 5.056a3.355 3.355 0 0 1 -4.584 1.407l-1.897-1.019c-1.657-.907-4.358-.907-6.021-.019l-7.238 3.835c-1.668.889-4.436 1.031-6.186.303l-6.682-2.761-5.086-1.691c-1.796-.607-3.346-2.619-3.422-4.504l-.075-1.301c-.095-1.888-.086-4.904.038-6.737.096-1.823-1.286-3.688-3.119-4.14l-1.059-.273a3.473 3.473 0 0 0 -4.196 2.483l-1.247 4.725c-.483 1.827-.842 4.832-.813 6.723l.095 4.29c.029 1.89-1.428 3.772-3.281 4.188l-8.301 1.9c-1.852.426-4.007 2.146-4.818 3.858l-2.392 4.94c-.813 1.703-2.5 4.246-3.742 5.662l-3.39 3.837c-1.262 1.428-3.719 3.072-5.523 3.668l-11.296 3.835-11.343 3.858-10.633 3.091c-1.814.538-2.325 2.165-1.144 3.638l9.423 11.777c1.172 1.485 1.909 4.19 1.636 6.061l-1.352 9.062c-.284 1.871-2.042 3.328-3.932 3.253l-4.49-.162c-1.899-.075-4.933-.417-6.787-.757l-13.968-2.58s-1.155-.3-2.581-.649c-1.407-.352-3.384.649-4.423 2.239l-3.763 5.801c-1.038 1.588-1.502 4.368-1.057 6.201l1.172 4.904c.445 1.846-.49 4.143-2.098 5.145l-1.033.641c-1.615 1.014-3.759 3.101-4.828 4.662l-1.949 2.883c-1.067 1.576-.672 3.553.859 4.443 1.542.897 2.686 3.138 2.562 5.028l-.187 3.014c-.132 1.882 1.189 3.997 2.928 4.746l4.387 1.833c1.747.729 4.48 2.107 6.095 3.071l3.115 1.856c1.612.964 4.428 1.405 6.282.99l2.731-.624c1.843-.428 4.622.074 6.211 1.115l.471.311c1.589 1.041 3.999.859 5.406-.414l6.229-5.624 4.679-4.81c1.323-1.362 1.783-3.876 1.058-5.617-1.258-3.036-2.949-7.22-2.949-7.76 0-.519 3.044-2.596 5.454-4.156 1.588-1.029 4.367-2.251 6.181-2.751l4.112-1.151c1.821-.519 4.282-2.099 5.509-3.545l1.361-1.616c1.21-1.446 2.251-4.149 2.289-6.05l.055-1.928c.031-1.883 1.457-3.885 3.185-4.479 1.703-.595 4.461-.37 6.145.481l4.395 2.242c1.683.851 4.358.746 5.946-.258l5.017-3.11 9.13-4.486c1.692-.834 3.752-.132 4.603 1.557l1.211 2.428c.849 1.702 2.909 3.744 4.619 4.567l1.76.859c1.692.825 4.227 2.498 5.656 3.763l4.485 3.94 6.002 4.396c1.538 1.104 4.114 2.78 5.738 3.713l1.967 1.115c1.645.926 2.928 3.215 2.844 5.105l-.143 3.44c-.084 1.89-1.589 3.942-3.362 4.593l-2.346.853c-1.775.652-4.555 1.927-6.2 2.854l-4.311 2.431c-1.643.926-1.565 2.278.162 3.033l3.137 1.352c1.731.748 4.642 1.655 6.504 2.012l2.05.399c1.861.366 4.225-.615 5.294-2.165l3.195-4.669 6.445-8.138 3.885-4.301c1.275-1.398 1.541-3.866.595-5.503l-1.284-2.212c-.947-1.634-3.043-3.723-4.689-4.658l-3.043-1.737c-1.643-.949-4.501-1.837-6.389-2.011l-.229-.024c-1.879-.168-4.271-1.577-5.34-3.146l-1.079-1.596c-1.047-1.579-3.05-3.877-4.449-5.154l-4.576-4.149c-1.38-1.279-2.608-3.848-2.722-5.727l-.245-4.085c-.095-1.878.945-2.938 2.373-2.342 1.407.595 3.751 2.029 5.227 3.222l10.83 8.762 5.899 3.893c1.578 1.042 4.301 2.449 6.059 3.129l6.662 2.628c1.778.699 3.101 2.654 2.988 4.359-.132 1.718.187 4.583.701 6.408l.735 2.603c.502 1.826 1.983 4.418 3.27 5.789l2.995 3.155c1.303 1.371 3.195 3.763 4.245 5.34l2.202 3.291c1.049 1.568 3.401 3.111 5.264 3.438l1.816.313c1.871.33 3.61-.796 3.911-2.516.302-1.699 2.07-3.182 3.961-3.296l.652-.037c1.892-.112 2.233-1.143.738-2.334l-1.078-.85c-1.472-1.183-3.091-3.245-3.627-4.604-.533-1.362-1.588-3.479-2.346-4.717-.773-1.238-.718-3.393.107-4.819.823-1.403 2.9-3.169 4.639-3.904l1.198-.519c1.742-.739 4.339-1.342 5.816-1.342 1.492 0 3.63 1.19 4.801 2.673l.662.851c1.191 1.486 2.383 4.112 2.67 5.899.301 1.768 1.244 4.576 2.105 6.239l.71 1.407c.871 1.684 2.512 4.263 3.667 5.767l1.606 2.05c1.141 1.502 3.535 3.241 5.303 3.885l1.277.455c1.776.641 3.825 1.928 4.612 2.872.754.945 2.778 1.067 4.479.257l.643-.293c1.711-.811 3.385-2.47 3.744-3.705.358-1.248 1.645-2.062 2.892-1.815l2.251.427 4.612.963c2.536.535 6.392-.474 8.602-2.245l.548-.437c2.191-1.77 5.767-3.215 7.957-3.215 2.193 0 4.066 1.114 4.181 2.466.113 1.363.208 2.469.208 2.469l.849 8.978 1.55 8.619c.323 1.872.151 4.832-.416 6.647l-2.399 7.853-1.797 4.716c-.681 1.767-2.693 2.846-4.538 2.401l-7.465-1.815c-1.835-.443-4.661-.058-6.309.878l-5.394 3.049c-1.646.926-4.509 1.687-6.409 1.687h-6.198l-17.316-1.277-10.091-1.134c-1.875-.206-3.786-1.182-4.258-2.184-.471-1.012-2.382-1.938-4.272-2.081l-1.947-.141c-1.89-.132-4.897.153-6.73.643l-3.647 1.004c-1.835.482-3.648 2.391-4.063 4.232l-.21 1.022c-.416 1.842.095 4.631 1.098 6.217l.151.237c1.021 1.59.397 3.337-1.417 3.887l-2.456.766c-1.799.548-4.559.179-6.157-.823l-.63-.407c-1.593-1.012-4.406-2.079-6.26-2.387l-7.375-1.234c-1.868-.311-4.127-1.909-5.043-3.562l-.114-.206c-.907-1.653-3.082-3.555-4.838-4.246l-3.47-1.371c-1.768-.679-4.708-1.474-6.569-1.756l-8.43-1.315c-1.873-.274-4.613-1.448-6.125-2.563l-3.705-2.762a3.362 3.362 0 0 1 -.662-4.761l3.537-4.622c1.153-1.502 1.455-3.629.68-4.757-.756-1.116-.756-3.23 0-4.706.773-1.474.019-3.346-1.682-4.175l-2.193-1.061c-1.701-.831-4.574-1.18-6.428-.783l-7.21 1.548c-1.844.407-4.887.718-6.775.718h-26.325c-1.892 0-4.868.502-6.653 1.124l-14.738 5.086-9.818 3.392c-1.796.608-4.763.907-6.635.663l-6.258-.819c-1.88-.251-4.857-.92-6.653-1.514l-2.06-.663c-1.798-.576-4.272.084-5.521 1.503l-7.231 8.15c-1.247 1.416-3.677 3.164-5.416 3.902l-4.187 1.798c-1.748.754-4.167 2.502-5.417 3.93l-4.477 5.122c-1.241 1.419-2.241 4.103-2.241 6.002v4.282c0 1.89-1.21 4.385-2.667 5.586l-7.097 5.736c-1.464 1.192-4.168 2.364-6.048 2.619l-2.629.369c-1.88.234-4.243 1.727-5.292 3.304l-2.203 3.291c-1.04 1.572-3.186 3.687-4.772 4.699l-4.509 2.93c-1.598 1.021-3.337 3.316-3.904 5.122l-.966 3.081c-.556 1.82-2.05 4.415-3.326 5.805l-7.777 8.437c-1.277 1.398-2.968 3.905-3.775 5.62l-1.595 3.427c-.794 1.711-.737 4.467.151 6.132l1.512 2.933c.89 1.662.975 4.367.208 6.011-.764 1.665-1.134 4.519-.813 6.37l.35 2.034c.312 1.859.178 4.866-.312 6.693l-1.87 7.067c-.484 1.825-1.561 4.69-2.374 6.391l-3.45 7.119c-.813 1.699-.737 4.421.172 6.065l.113.219c.926 1.653 1.182 4.453.586 6.246l-1.285 3.914c-.588 1.797-.086 4.425 1.142 5.88l13.857 16.444c1.2 1.438 2.92 3.971 3.81 5.633l8.749 16.219c.89 1.68 2.74 4.064 4.13 5.37l12.116 11.282c1.373 1.306 3.794 3.138 5.41 4.143l11.851 7.256c1.615.983 4.423 1.44 6.267 1.024l13.297-3.044c1.834-.406 4.838-.454 6.692-.095l16.116 3.232c1.852.361 4.696-.074 6.35-.991l9.424-5.248c1.653-.914 4.49-1.981 6.342-2.399l14.413-3.101c1.852-.416 4.519.247 5.983 1.453l5 4.179c1.464 1.212 3.667 3.336 4.934 4.729l5.682 6.341c1.275 1.397 3.799 2.221 5.643 1.825l9.293-1.987c1.842-.405 4.856-.491 6.723-.187l4.069.643c1.873.302 4.538 1.548 5.975 2.776l3.98 3.48c1.405 1.256 2.257 3.76 1.897 5.614l-.927 4.709c-.376 1.851-1.455 4.686-2.381 6.324l-3.451 6.047c-.934 1.635-2.721 3.735-3.988 4.689-1.251.947-1.276 2.881-.065 4.309l12.117 14.209c1.227 1.418 3.365 3.626 4.746 4.913l8.657 7.921c1.382 1.285 2.516 3.854 2.516 5.744v9.131c0 1.892.62 4.82 1.38 6.551l1.804 4.017c.765 1.73 2.316 4.349 3.471 5.834l1.529 1.995c1.155 1.493 1.713 4.215 1.268 6.048l-1.209 4.746c-.445 1.833-1.741 4.559-2.884 6.076l-2.732 3.66c-1.144 1.493-2.644 4.141-3.385 5.896l-4.763 11.361c-.737 1.741-1.34 4.689-1.34 6.588v6.853c0 1.891.945 4.63 2.117 6.122l9.866 12.707 6.861 7.712c1.267 1.417 2.287 4.101 2.287 5.99v11.985c0 1.892 1.189 4.38 2.676 5.56l3.204 2.569c1.494 1.191 3.365 3.505 4.215 5.2l5.502 10.985c.829 1.715 1.511 4.595 1.511 6.49v3.43a3.416 3.416 0 0 0 3.421 3.421h6.296c1.89 0 4.876-.418 6.701-.945l11.106-3.224c1.825-.538 4.82-1.108 6.71-1.275l17.721-1.646c1.881-.187 4.763-1.046 6.417-1.945l8.829-4.744c1.663-.89 4.224-2.543 5.729-3.688l11.095-8.421c1.512-1.145 3.65-3.28 4.801-4.793l8.964-11.672c1.152-1.512 3.267-3.705 4.705-4.925l9.033-7.579c1.439-1.212 3.442-3.497 4.444-5.097l6.05-9.612c1.002-1.608 2.136-4.404 2.534-6.258l2.025-9.83c.376-1.853 1.869-4.339 3.344-5.521l13.535-11.094c1.472-1.182 3.988-2.897 5.632-3.823l9.434-5.234c1.642-.926 3.4-3.138 3.921-4.954l3.28-11.684c.511-1.811.966-4.827 1.021-6.726l.386-14.253c.047-1.895-.122-4.945-.386-6.825-.49-3.724-1.246-9.379-1.246-10.862 0-2.294 1.15-21.114 1.15-22.824 0-1.23 4.424-9.549 6.919-14.121.906-1.665 2.626-4.189 3.846-5.636 3.562-4.279 10.389-12.566 12.066-15.066 2.27-3.42 16.552-22.816 16.552-22.816l9.331-12.136c1.134-1.492 2.666-4.138 3.366-5.887l4.845-11.922c.71-1.747 1.561-4.677 1.92-6.54l5.067-27.431 2.626-17.173c.285-1.86-.945-2.909-2.741-2.306l-10.899 3.564c-1.794.584-4.604 1.796-6.265 2.686l-11.078 5.913c-1.665.89-4.48 2.053-6.294 2.629l-2.609.812c-1.795.549-4.478.095-5.991-1.037l-1.382-1.033c-1.512-1.145-3.552-3.337-4.572-4.935l-4.313-6.775c-1.019-1.59-3.365-2.894-5.255-2.894h-1.146c-1.897 0-4.354-1.229-5.507-2.711l-3.744-4.848c-1.155-1.493-2.894-4.021-3.877-5.655l-3.354-5.555c-.983-1.608-2.921-3.925-4.377-5.162-2.986-2.57-7.675-6.5-8.82-6.899-.934-.294-2.388-2.474-3.486-4.406-.966-1.622-2.117-4.462-2.686-6.254l-1.625-5.013c-.586-1.804-1.796-4.603-2.722-6.256l-2.646-4.748c-.927-1.653-2.779-4.053-4.14-5.347l-7.041-6.693c-1.363-1.314-3.11-3.761-3.923-5.471l-7.959-17.186c-.794-1.719.077-2.88 1.948-2.599l4.65.69c1.871.285 4.366 1.692 5.596 3.12l12.975 15.322c1.225 1.445 3.518 3.421 5.117 4.423l9.886 6.098c1.608.999 2.897 3.33 2.897 5.217v6.75c0 1.89 1.225 4.35 2.737 5.502l8.829 6.785c1.493 1.153 3.538 3.385 4.574 4.963l10.7 16.53 10.059 16.477c.979 1.605 3.23 2.436 5.007 1.814l11.758-4.017 18.45-6.325c1.778-.605 4.179-2.306 5.358-3.799l11.153-14.015c1.182-1.493 3.205-3.772 4.547-5.115l12.853-12.95c1.34-1.343 2.515-3.96 2.644-5.85.588-8.583 2.062-30.473 2.062-31.844 0-1.225.284-9.915.44-14.838.062-1.893-1.289-4.038-3.019-4.783l-5.7-2.44c-1.73-.748-3.828-.189-4.672 1.22-.847 1.426-2.89 1.831-4.533.933l-1.392-.755c-1.654-.907-4.007-2.789-5.266-4.204l-.48-.547c-1.256-1.412-2.9-1.155-3.66.567l-.659 1.445c-.755 1.729-2.165 4.451-3.138 6.076l-.974 1.617c-.971 1.619-3.279 3.241-5.131 3.614l-2.363.469c-1.862.369-3.081-.835-2.711-2.693l.404-2.153a3.32 3.32 0 0 0 -2.731-3.924l-1.579-.274c-1.873-.302-4.725.105-6.359.918-1.64.814-3.963.304-5.171-1.153l-11.189-13.552c-1.193-1.468-2.179-4.171-2.179-6.068v-6.845c0-1.889 1.419-2.854 3.167-2.135l.824.339c1.775.718 4.081 2.535 5.217 4.053l1.83 2.506c1.115 1.512 3.27 3.629 4.839 4.698l3.103 2.135 3.401 2.203c1.587 1.021 4.368 2.2 6.21 2.626l2.959.699c1.852.426 4.575-.12 6.105-1.237l.247-.179c1.512-1.116 4.291-2.118 6.183-2.257l17.702-1.226c1.881-.137 4.773-.977 6.418-1.886l12.816-6.983c1.674-.908 4.159-.624 5.557.634l5.748 5.141c1.416 1.256 4.083 2.079 5.954 1.788 4.975-.764 13.722-2.278 13.722-3.505 0-1.175 4.312-6.94 7.015-10.437 1.153-1.484 2.505-1.201 2.969.634l3.423 13.336c.481 1.833 1.434 4.746 2.134 6.504l6.586 16.475c.689 1.749 2.052 4.498 2.997 6.124l12.523 21.475c.955 1.636 2.204 4.428 2.768 6.229l6.478 20.302c.593 1.796 2.22 4.237 3.658 5.463l5.614 4.728c1.455 1.219 2.354.681 2.024-1.175-1.826-10.406-7.109-41.437-5.693-42.853 1.258-1.249-4.441-9.444-7.653-13.81-1.1-1.521-1.869-4.261-1.656-6.143 1.01-8.81 3.603-31.749 3.603-33.131 0-1.302-4.272-14.469-6.334-20.719-.587-1.796-.642-4.725-.113-6.54l3.77-12.827c.538-1.814 1.787-1.991 2.799-.387l16.889 26.739c1.01 1.596 2.041 2.835 2.31 2.761.259-.075.836 1.37 1.245 3.203 7.111 31.33 10.87 63.913 10.87 97.353 0 242.41-197.211 439.622-439.623 439.622-128.353.003-244.022-55.29-324.468-143.324zm482.665-103.96.719 1.305c.927 1.648 1.623 4.527 1.606 6.416-.008.283-.019.558-.019.85-.019 1.892.672 4.511 1.739 5.599 1.059 1.094 2.911 3.127 4.031 4.629l1.688 2.232c1.127 1.512 2.038 3.876 2.038 5.309 0 1.401-1.234 1.677-2.777.567l-2.559-1.802c-1.532-1.107-3.572-3.301-4.538-4.916l-1.85-3.11c-.966-1.627-1.494-4.451-1.208-6.313l.187-1.172c.321-1.865.349-4.897.076-6.767l-.325-2.423c-.265-1.869.266-2.057 1.192-.404zm25.747-17.421c-1.666.871-4.369 1.721-5.909 1.287-1.551-.473-1.369-3.554-1.472-5.446-.133-2.546-.557-5.395-.122-6.651.642-1.93 3.835-6.011 4.271-6.202.208-.111 1.531-.613 2.892-1.096 1.588-.607 4.377-.708 6.219-.284l2.534.586c1.834.435 3.55 2.306 3.799 4.178l.351 2.41c.263 1.884-.823 4.226-2.428 5.246l-5.454 3.506zm11.312 78.418c0 .679-1.842.242-3.619-.326-1.816-.578-3.629-2.636-4.12-4.461l-2.042-7.353c-.51-1.814-.037-4.553 1.059-6.115l1.417-2.047c1.078-1.555 1.968-4.332 1.968-6.224v-1.285c0-1.892 1.172-3.232 2.541-2.799 1.107.33 2.165.796 2.165 1.299 0 1.065 1.282 11.123 1.282 13.054 0 1.926 1.497 4.703 1.062 7.061-.417 2.359-1.713 7.923-1.713 9.196z" fill="#fff"/></mask><g clip-path="url(#a)"><path d="m.15.65h499.99v249.996h-499.99z" fill="#fff"/><circle cx="249.936" cy="539.321" fill="#fff" r="436.7" stroke="#000" stroke-width=".5"/><g fill="#eee" mask="url(#b)" stroke="#000"><path d="m167.909 241.351c-1.727.693-4.644 1.263-6.506 1.264h-2.353c-.906 0-1.984-.243-2.991-.643-1.008-.399-1.919-.945-2.502-1.53-.59-.595-1.138-1.484-1.54-2.451-.401-.966-.646-1.987-.646-2.837v-3.203h-.25.25v-1.93c0-.485.166-1.11.449-1.731.281-.618.668-1.209 1.086-1.628.386-.382 1.065-.618 1.89-.656a5.929 5.929 0 0 1 2.578.481l.001.001.577.247c.892.391 2.079.684 3.273.844 1.195.16 2.418.19 3.385.043l3.289-.493c.899-.132 2.06-.09 3.21.093 1.151.183 2.27.503 3.087.914h.001l.718.358c.825.409 1.764 1.078 2.616 1.831s1.603 1.577 2.058 2.288h.001c.854 1.332.331 3.084-1.236 3.878h-.001l-6.143 3.139zm91.701-62.514h-.001c.324.363.795.514 1.309.446.518-.068 1.074-.359 1.529-.872l.001-.001 1.775-1.99.005-.005.019-.023.075-.09.276-.328c.232-.278.554-.661.909-1.083l.002-.003v.001c.425-.49 1.127-.708 1.877-.708.755 0 1.599.22 2.359.654l.002.001c.671.392 1.357.464 1.915.288.555-.175 1.004-.6 1.206-1.252l.002-.006c.455-1.359-.131-3.013-1.236-3.703-.645-.392-1.087-.891-1.239-1.409a1.248 1.248 0 0 1 .008-.781c.088-.253.261-.471.506-.646l.003-.002a.515.515 0 0 0 .242-.369c.02-.147-.016-.335-.133-.56-.236-.452-.765-.979-1.556-1.447h-.001l-.662-.388h-.001c-.761-.452-1.734-.641-2.691-.573-.958.068-1.876.392-2.532.938zm0 0-.004-.004m.004.004-.004-.004m0 0c-.421-.455-1.159-.999-1.998-1.513a19.629 19.629 0 0 0 -2.703-1.382c-.869-.357-1.765-.732-2.47-1.045a20.536 20.536 0 0 1 -.88-.41 4.883 4.883 0 0 1 -.272-.147 1.694 1.694 0 0 1 -.078-.05l-.022-.017-.002-.002c.001-.002-.017-.033-.024-.136-.009-.116 0-.276.025-.48.051-.406.164-.943.307-1.558.072-.313.152-.645.235-.989.24-.995.502-2.081.665-3.048.047-.275.211-.501.495-.69.289-.192.69-.336 1.176-.436.97-.202 2.207-.218 3.364-.161h.001m2.181 12.064-2.181-12.064m0 0c.976.043 2.142-.11 3.244-.425m-3.244.425 3.244-.425m0 0c1.1-.313 2.159-.793 2.909-1.418zm49.256-12.339h.001l2.652 1.228.001.001c.838.392 1.124.827 1.113 1.152-.012.324-.331.738-1.2 1.071l-3.308 1.266-.001.001a91.909 91.909 0 0 1 -6.478 2.101l-2.373.644h-.001c-.887.238-1.967.361-2.991.349-1.03-.011-1.973-.158-2.597-.439-.555-.249-1.09-.515-1.476-.757a2.45 2.45 0 0 1 -.428-.322.427.427 0 0 1 -.076-.094c.037-.173.145-.531.294-.998.125-.389.275-.842.427-1.304l.109-.33c.188-.572.373-1.137.511-1.587.069-.225.127-.423.168-.58.022-.086.043-.171.056-.245l.099-.038c.152-.053.379-.119.673-.195a56.397 56.397 0 0 1 2.353-.535c1.889-.398 4.251-.852 6.145-1.21.899-.16 2.06-.153 3.215-.004s2.282.437 3.112.825zm35.054 36.194-.001-.002a36.984 36.984 0 0 1 -2.009-1.607 7.66 7.66 0 0 1 -.649-.625 1.658 1.658 0 0 1 -.162-.209c-.021-.034-.028-.052-.03-.057a.684.684 0 0 0 -.076-.269 2.158 2.158 0 0 0 -.166-.278 7.977 7.977 0 0 0 -.55-.687 39.9 39.9 0 0 0 -1.703-1.788 195.36 195.36 0 0 0 -1.472-1.452c-.772-.757-1.45-1.421-1.804-1.813-.534-.607-.91-1.427-1.171-2.283a12.854 12.854 0 0 1 -.468-2.423l-.001-.001c-.023-.225-.115-.454-.24-.682a5.646 5.646 0 0 0 -.493-.723c-.286-.367-.642-.771-1.02-1.201l-.416-.475c-1.072-1.233-2.214-2.662-2.699-4.25-.361-1.242.108-2.339.842-3.219h.001c.607-.73 1.325-1.629 1.917-2.569.589-.936 1.071-1.938 1.182-2.873v-.003c.089-.844.427-1.704.899-2.411.475-.71 1.067-1.239 1.644-1.455.561-.204 1.237-.097 1.888.281.649.378 1.249 1.015 1.635 1.821v.001l.739 1.533c.399.825.738 1.955.961 3.118.223 1.162.326 2.339.261 3.255v.001l-.208 2.732c-.076.96-.028 1.942.111 2.756.069.407.162.777.275 1.083.111.301.251.565.428.736l.004.004c.247.231.611.796 1.001 1.556.383.748.776 1.652 1.088 2.53v.001l.265.753c.326.923.92 1.994 1.615 2.985s1.501 1.917 2.26 2.543h.001l.565.471c1.448 1.216 3.951 3.01 5.568 4.017l1.037.651c.791.497 1.339.993 1.603 1.382.134.198.173.336.17.416a.126.126 0 0 1 -.024.073.236.236 0 0 1 -.099.07l-.003.001c-.316.144-.986.285-1.842.389-.844.102-1.836.165-2.771.165h-1.853c-.912 0-2.058-.212-3.163-.568-1.106-.356-2.15-.85-2.867-1.401zm24.039-18.344c.633.528 1.21 1.01 1.627 1.36l.496.414.134.114.035.029.009.007.003.002v.001l.161-.191-.161.191.008.006.008.006 4.717 3.354.007.006.008.004 1.93 1.172.001.001c.499.301 1.028.804 1.472 1.377.445.574.789 1.198.938 1.727l.002.004c.157.526.179 1.168.081 1.778-.098.613-.313 1.164-.603 1.521l-.002.002c-.26.327-.769.537-1.432.568-.653.03-1.412-.118-2.109-.454-1.462-.712-3.395-1.793-4.277-2.405-.453-.316-.867-.604-1.166-.814l-.356-.248-.097-.068-.025-.018h-.001l-3.123-2.556v-.001h-.001l-.002-.002-.008-.007-.033-.027-.127-.105a69.424 69.424 0 0 1 -1.829-1.571 28.018 28.018 0 0 1 -1.383-1.305 6.363 6.363 0 0 1 -.453-.51 1.487 1.487 0 0 1 -.119-.173.316.316 0 0 1 -.028-.059v.003c-.023-.195-.123-.497-.236-.815l-.126-.352c-.085-.236-.175-.484-.259-.733a7.325 7.325 0 0 1 -.285-1.039 1.713 1.713 0 0 1 -.03-.371.352.352 0 0 1 .036-.159.873.873 0 0 1 .212-.143c.129-.07.299-.148.501-.23.403-.165.913-.34 1.431-.505.58-.183 1.378-.144 2.204.083.821.225 1.638.627 2.25 1.131z" stroke-width=".5"/><path d="m584.64 203.325c-89.565-89.571-208.677-138.903-335.35-138.903-126.674 0-245.775 49.332-335.349 138.903-89.572 89.575-138.904 208.674-138.904 335.348 0 126.675 49.334 245.785 138.904 335.35 89.572 89.564 208.675 138.907 335.349 138.907 126.675 0 245.785-49.343 335.35-138.907 89.566-89.565 138.902-208.675 138.902-335.35 0-126.674-49.336-245.773-138.902-335.348zm-119.265 146.511 6.123 4.093 3.084 2.399c1.492 1.144 3.299 3.497 4.029 5.236l.545 1.266c.737 1.741 2.363 4.292 3.629 5.7l8.195 9.157 5.681 7.723c1.113 1.523 1.701 4.265 1.304 6.107l-.038.151c-.414 1.853-1.87 4.377-3.296 5.614l-2.809 2.524c-1.399 1.258-3.968 1.662-5.698.908l-5.055-2.186c-1.722-.765-3.432-2.871-3.781-4.734l-1.503-7.825c-.349-1.853-1.199-4.793-1.882-6.55l-1.795-4.538c-.681-1.765-2.344-4.255-3.724-5.557l-8.222-7.903s-8.982-7.921-8.982-8.78c0-.854-6.859-9.415-6.859-10.267 0-.538 1.869-4.65 3.249-7.619.804-1.701 2.76-3.903 4.348-4.925l5.35-3.392c1.607-1.021 3.023-.313 3.176 1.577l.302 3.442c.151 1.89-.359 4.82-1.153 6.532l-.567 1.264c-.792 1.72-.416 4.265.851 5.672l.369.445c1.255 1.416 3.545 3.418 5.129 4.466zm27.328-16.114-.046-.021c-1.779-.641-3.488-2.684-3.83-4.545l-.464-2.684c-.339-1.862.672-4.179 2.251-5.18 1.588-.993 4.234-1.109 5.897-.227l1.507.783c1.687.872 2.916 2.722 2.77 4.152-.1 1.228-.232 2.447-.232 2.579 0 .122-1.34 1.923-2.553 3.574-1.143 1.521-3.525 2.212-5.3 1.569zm-105.813 16.219c.605-1.579 2.455-3.545 4.139-4.397l5.868-2.93c1.693-.84 3.772-.161 4.642 1.504l.548 1.069c.869 1.671 1.098 4.213.495 5.68l-1.052 2.638-1.332 3.883c-.606 1.796.406 3.574 2.249 3.98l2.439.538c1.852.407 4.763 1.333 6.493 2.068l4.696 2.006 7.619 3.612c1.702.79 3.705 2.871 4.453 4.591l.122.292c.756 1.73.075 3.962-1.533 4.971l-3.638 2.316c-1.598 1.019-4.413 1.834-6.304 1.806a1185.02 1185.02 0 0 1 -7.844-.123c-1.891-.036-4.913-.502-6.767-.908-1.966-.462-4.083-.926-4.083-.926l-6.031-.926c-1.871-.277-4.593.424-6.105 1.577l-2.835 2.203-6.219 4.423c-1.533 1.097-4.272 1.693-6.126 1.304l-5.141-1.049c-1.852-.377-4.253-1.937-5.368-3.458l-1.247-1.74c-1.116-1.531-1.873-4.298-1.72-6.181l.111-1.304c.17-1.89.775-4.868 1.399-6.666l.378-1.209c.622-1.796 1.777-4.612 2.631-6.312l.355-.728c.851-1.682 2.08-4.488 2.733-6.258l.604-1.578c.653-1.776 2.468-2.352 4.038-1.294l3.025 2.021c1.56 1.059 3.534 2.741 4.404 3.772.869 1.021 2.74 2.844 4.194 4.065l1.026.872c1.452 1.208 3.51 1.775 4.589 1.235.815-.406 1.626-.84 1.892-1.029.265-.206.717-1.133 1.114-2.079.52-1.202-.057-3.432-1.208-4.916l-.672-.86c-1.146-1.491-1.619-3.986-1.031-5.555zm-462.08 485.027c-1.277-1.38-2.57-4.04-2.892-5.911l-1.2-6.77c-.312-1.873-1.598-4.519-2.874-5.915-1.72-1.876-4.073-4.38-5.908-6.146-1.371-1.323-2.57-3.574-1.457-5.119 1.098-1.514 2.646-3.328 3.933-4.768 1.248-1.435 3.688-1.89 5.397-1.076l3.508 1.646c1.71.796 4.347.567 5.888-.527l4.112-2.897c1.55-1.097 2.686-3.514 2.541-5.406l-1.445-19.407-.501-22.257c-.037-1.888.907-4.593 2.11-6.05l7.04-8.432c1.21-1.443 1.967-4.141 1.69-6.01l-3.58-24.622c-.265-1.87-1.504-4.528-2.758-5.935l-11.427-12.863-9.17-10.53c-1.248-1.435-3.535-3.426-5.114-4.444l-11.948-7.701c-1.586-1.031-3.931-2.976-5.227-4.337l-15.264-16.145c-1.294-1.389-3.079-3.856-3.969-5.521l-5.908-11.077c-.89-1.665-1.898-4.517-2.259-6.369l-1.627-8.64-4.923-20.642c-.433-1.833-1.545-4.669-2.466-6.313l-10.36-18.565c-.907-1.644-2.704-4.101-3.931-5.548-1.997-2.306-4.576-5.519-4.576-6.569 0-1.71-5.71-26.816-5.71-26.816l-7.59-25.833c-.538-1.811-1.795-4.573-2.797-6.172l-8.578-13.59c-.998-1.609-1.612-4.413-1.345-6.296 4.177-28.809 11.124-56.739 20.631-83.477.629-1.777.889-2.098.559-.712l-.597 2.526-2.257 12.891c-.332 1.861.426 4.517 1.684 5.926l2.295 2.597c1.261 1.41 2.722 1.089 3.289-.719l1.956-6.302c.575-1.796 1.02-4.803 1.02-6.693v-7.126c0-1.89-.416-4.904-.936-6.731l-1.399-4.886c-.519-1.815-.388-4.726.313-6.484a437.38 437.38 0 0 1 21.324-45.597c.888-1.663 3.11-3.148 4.925-3.335 1.833-.17 4.613-1.108 6.228-2.11l3.573-2.182c1.615-1.002 3.988-2.911 5.284-4.282 2.977-3.155 7.705-8.27 7.705-8.855 0-.862 8.136-4.926 8.136-6.206 0-.913 6.663-4.818 10.703-7.111 1.651-.926 4.524-1.673 6.415-1.673h2.78c1.888 0 4.3-1.26 5.36-2.82 1.436-2.124 3.166-4.779 3.42-5.528.258-.776 3.811-2.098 6.575-3.024 1.799-.606 3.464.481 3.704 2.352l.41 3.054c.238 1.88 1.96 3.242 3.83 3.024 5.274-.594 14.792-1.72 14.792-2.182 0-.321-.481-1.674-.983-3.024-.613-1.647-1.323-4.502-1.54-6.372l-.297-2.619c-.202-1.881 1.091-3.838 2.897-4.376l1.353-.397c1.806-.548 4.347-2.098 5.643-3.469l3.629-3.815c1.299-1.373.983-3.169-.7-4.002l-.727-.368c-1.692-.842-3.062-2.967-3.062-4.744 0-1.768 1.51-2.962 3.384-2.648l3.723.605c1.872.303 4.717 1.303 6.372 2.23l5.35 3.016 4.754 2.78c1.635.956 2.068 2.968.955 4.507l-1.995 2.786c-1.098 1.536-3.45 3.265-5.237 3.881l-6.143 2.076c-1.798.607-3.695 2.574-4.264 4.37l-1.814 5.878c-.558 1.815.038 4.385 1.332 5.755l5.368 5.729c1.285 1.369 3.838 2.184 5.69 1.776 3.743-.831 9.281-2.148 9.281-2.715 0-.469-.33-2.984-.606-5.168-.263-1.882.22-4.774 1.07-6.446l7.238-14.274 5.086-10.009c.85-1.684 2.703-4.076 4.119-5.314l5.342-4.688c1.418-1.241 3.24-3.631 4.053-5.339 2.447-5.019 7.099-14.478 7.723-15.112.594-.595 6.598-6.19 10.113-9.432 1.38-1.296 2.636-3.858 2.806-5.739l.265-3.241c.162-1.89-1.19-3.071-3.043-2.651l-10.028 2.316c-1.835.43-2.232-.297-.87-1.612l5.246-5.105 9.205-9.715c1.296-1.371 2.894-3.923 3.545-5.69l1.684-4.5c.651-1.778-.21-3.204-1.91-3.204-1.72 0-4.32.926-5.824 2.068l-8.201 6.279-13.745 10.348c-1.502 1.146-4.112 2.723-5.813 3.538l-4.102 1.965c-1.7.822-4.338 2.37-5.888 3.458l-13.224 9.32c-1.56 1.094-4.337 1.974-6.228 1.974h-2.788c-1.892 0-2.439-1.18-1.23-2.636l5.237-6.296c1.22-1.457 3.355-3.637 4.763-4.895l13.703-12.069 11.55-10.7 13.488-11.133 8.847-6.88c1.502-1.162 4.207-2.421 6.06-2.808l3.571-.744c1.853-.38 4.877-.729 6.769-.777l1.928-.046c1.89-.047 2.74 1.287 1.898 2.976l-2.288 4.577c-.85 1.691-.093 3.109 1.684 3.164 1.756.067 4.26-.555 5.557-1.389 1.295-.823 2.825-.037 3.41 1.758l.037.134c.57 1.793.142 4.489-.964 6.021l-.48.665c-1.106 1.528-3.101 3.832-4.462 5.147l-3.222 3.154c-1.361 1.315-2.913 3.849-3.486 5.647l-2.006 6.321c-.567 1.794.389 2.683 2.153 1.975l4.736-1.92 6.476-2.74c1.746-.739 4.678-1.445 6.568-1.615l3.666-.293c1.873-.151 4.84-.823 6.618-1.486l7.277-2.722c1.778-.666 4.47-2.075 6.02-3.148l11.749-8.115 10.095-5.964c1.632-.966 3.912-2.939 5.093-4.413l2.572-3.222c1.172-1.467.765-3.33-.938-4.16l-.481-.228c-1.701-.815-2.315-2.593-1.371-3.951.948-1.359 2.383-3.835 3.223-5.538l3.205-6.552s.519-1.151 1.172-2.569c.661-1.417 2.362-1.598 3.847-.416l2.589 2.107c1.466 1.191 3.978 1.371 5.595.397l4.556-2.73 3.117-1.995c1.591-1.023 4.283-1.26 6.029-.519l7.818 3.316c1.741.737 1.674 1.741-.161 2.222l-5.368 1.445c-1.816.483-4.169 2.07-5.227 3.557-1.069 1.481-.777 3.686.639 4.926 1.412 1.243 1.186 2.908-.526 3.72l-3.223 1.54c-1.719.814-4.279 2.464-5.726 3.667l-9.141 7.657-7.418 7.428c-1.344 1.333-3.772 3.148-5.435 4.074l-7.478 4.114-14.714 9.878c-1.569 1.048-3.885 3.014-5.18 4.385l-2.58 2.722c-1.296 1.382-3.234 3.753-4.32 5.301l-4.028 5.755-5.5 7.694c-1.106 1.542-2.344 4.284-2.77 6.135l-.586 2.524c-.434 1.842.567 4.081 2.213 5.009l4.726 2.654c1.653.92 4.084.586 5.452-.726l2.785-2.712c1.365-1.323 3.38-3.601 4.532-5.122l1.199-1.593c1.153-1.509 3.522-3.225 5.32-3.815l5.7-1.909c1.797-.594 4.575-1.833 6.23-2.768l3.459-1.967c1.653-.933 4.519-1.693 6.408-1.693h9.414c1.89 0 4.763-.747 6.418-1.65l8.346-4.617c1.653-.907 4.524-1.52 6.416-1.369l8.574.728c1.892.141 4.772-.445 6.446-1.335l4.431-2.35c1.665-.883 4.095-2.705 5.418-4.064l3.562-3.648c1.315-1.352 3.744-3.167 5.425-4.036l9.121-4.755c1.682-.878 3.866-2.873 4.888-4.452l4.006-6.229c1.013-1.588 2.94-3.961 4.273-5.304l4.784-4.791c1.342-1.333 1.995-3.887 1.455-5.706l-2.457-8.272-3.129-8.753c-.634-1.786.284-2.683 2.052-2.014l5.783 2.211 13.544 5.729c1.739.727 4.423 2.184 6.002 3.222l1.371.909c1.569 1.058 4.331 2.247 6.183 2.653l7.653 1.722c1.853.407 4.784.19 6.532-.511l5.606-2.201c1.756-.698 4.715-1.182 6.606-1.086l6.234.311c1.871.086 4.732-.586 6.395-1.524l6.872-3.902c1.634-.935 4.433-2.164 6.227-2.78l5.067-1.683c1.794-.594 4.782-1.115 6.674-1.134l6.198-.105c1.892-.019 3.677-1.558 3.988-3.428l.359-2.233c.323-1.861 1.854-4.217 3.44-5.262l2.401-1.579c1.589-1.041 4.388-1.729 6.277-1.533l7.522.786c1.88.197 4.52-.703 5.899-1.999l3.808-3.634c1.363-1.296 1.148-3.129-.491-4.076l-6.265-3.629c-1.633-.943-3.648-3.091-4.499-4.784l-1.435-2.864c-.852-1.693-.037-2.72 1.815-2.304l19.858 4.488c1.842.416 4.736 1.378 6.465 2.146l6.155 2.763c1.739.777 4.27 2.435 5.67 3.705l1.569 1.397c1.39 1.268 2.211 3.799 1.833 5.653l-.531 2.495c-.378 1.852-2.177 2.959-4.022 2.485l-2.347-.614c-1.832-.481-4.822-.529-6.662-.115l-11.296 2.553c-1.853.416-2.155 1.729-.7 2.94l4.555 3.77c1.473 1.201 4.045 2.806 5.774 3.576l3.81 1.7c1.721.776 3.78 2.778 4.575 4.508l3.1 6.628c.794 1.708 2.627 4.083 4.085 5.273l4.129 3.365c1.457 1.199 3.488 3.45 4.527 5.038l3.953 6.04c1.024 1.579 2.958 3.931 4.319 5.254l5.377 5.267c1.363 1.332.947 2.112-.916 1.739l-8.672-1.682c-1.866-.353-4.872-.371-6.734-.019l-6.977 1.302c-1.86.344-1.936 1.181-.159 1.846l3.233 1.216c1.755.674 3.382 2.27 3.628 3.562.237 1.298-1.067 2.705-2.911 3.15l-4.028.962c-1.831.445-4.551 1.76-6.029 2.932l-4.897 3.883c-1.473 1.172-2.251 3.595-1.72 5.414l.84 2.846c.548 1.813-.557 3.358-2.449 3.433l-2.778.131c-1.892.075-4.196 1.484-5.15 3.112l-1.266 2.202c-.947 1.643-2.004 4.472-2.355 6.341l-.218 1.181c-.357 1.854-2.106 2.931-3.921 2.393l-4.998-1.486c-1.817-.538-4.348-2.071-5.673-3.43l-2.713-2.794c-1.314-1.356-.869-2.668 1.004-2.926l6.71-.964c1.869-.273 3.469-2.021 3.582-3.911l.028-.437c.113-1.881-1.134-4.175-2.768-5.122l-4.112-2.371c-1.646-.94-4.463-2.079-6.296-2.55l-5.765-1.505c-1.832-.471-4.858-.822-6.748-.784l-3.857.084c-1.891.038-4.913-.34-6.728-.833l-3.668-.991c-1.825-.492-4.774-.445-6.58.096l-12.268 3.78c-1.817.557-4.348 2.117-5.633 3.495l-6.426 6.789c-1.305 1.37-2.59 3.999-2.873 5.87l-.246 1.577c-.285 1.87-1.495 4.574-2.703 6.02l-4.196 5.012c-1.193 1.455-2.988 3.93-4.009 5.531l-1.89 2.983c-1.022 1.588-3.213 3.593-4.897 4.452l-3.11 1.586c-1.683.871-3.667 2.963-4.434 4.691l-1.495 3.365c-.775 1.739-1.445 4.67-1.501 6.558l-.208 5.994c-.064 1.899 1.352 3.885 3.155 4.44l3.091.964c1.806.558 4.746.57 6.541.021l5.442-1.652c1.798-.538 4.138.263 5.191 1.796 1.069 1.539 2.457 4.223 3.092 6l1.324 3.612c.643 1.784 2.372 4.157 3.875 5.301l1.832 1.407c1.514 1.153 4.084 1.372 5.748.464 3.194-1.737 7.828-4.393 8.098-5.225.277-.804-.538-5.095-1.179-8.215-.397-1.842.019-4.678.964-6.313l1.739-3.056c.937-1.642 1.124-4.383.397-6.144l-1.921-4.782c-.705-1.739-1.198-4.707-1.122-6.597.132-2.909.265-6.669.265-7.059 0-.426 3.44-5.332 5.727-8.555 1.098-1.541 3.429-3.224 5.197-3.741 1.779-.541 3.762.464 4.423 2.229l.569 1.512c.681 1.778.208 4.358-1.039 5.785l-1.269 1.475c-1.245 1.428-2.115 4.101-1.945 5.983l.019.242c.179 1.89 1.682 4.105 3.365 4.945l2.459 1.22c1.682.849 4.593 1.578 6.483 1.616l1.266.039c1.89.055 4.952-.115 6.824-.362l2.855-.387c1.87-.237 4.497.613 5.841 1.93l.641.605c1.361 1.304 2.562 3.383 2.686 4.622.113 1.237-1.183 2.239-2.892 2.239h-9.753c-1.88 0-2.953 1.467-2.385 3.271l.094.301c.548 1.818 1.022 4.81 1.022 6.712v3.419c0 1.885-1.398 2.768-3.099 1.959l-1.088-.509c-1.713-.795-3.822-.682-4.708.263-.88.945-1.227 3.203-.784 5.038l.725 2.975c.447 1.844.107 4.691-.763 6.364l-2.627 5.056a3.355 3.355 0 0 1 -4.584 1.407l-1.897-1.019c-1.657-.907-4.358-.907-6.021-.019l-7.238 3.835c-1.668.889-4.436 1.031-6.186.303l-6.682-2.761-5.086-1.691c-1.796-.607-3.346-2.619-3.422-4.504l-.075-1.301c-.095-1.888-.086-4.904.038-6.737.096-1.823-1.286-3.688-3.119-4.14l-1.059-.273a3.473 3.473 0 0 0 -4.196 2.483l-1.247 4.725c-.483 1.827-.842 4.832-.813 6.723l.095 4.29c.029 1.89-1.428 3.772-3.281 4.188l-8.301 1.9c-1.852.426-4.007 2.146-4.818 3.858l-2.392 4.94c-.813 1.703-2.5 4.246-3.742 5.662l-3.39 3.837c-1.262 1.428-3.719 3.072-5.523 3.668l-11.296 3.835-11.343 3.858-10.633 3.091c-1.814.538-2.325 2.165-1.144 3.638l9.423 11.777c1.172 1.485 1.909 4.19 1.636 6.061l-1.352 9.062c-.284 1.871-2.042 3.328-3.932 3.253l-4.49-.162c-1.899-.075-4.933-.417-6.787-.757l-13.968-2.58s-1.155-.3-2.581-.649c-1.407-.352-3.384.649-4.423 2.239l-3.763 5.801c-1.038 1.588-1.502 4.368-1.057 6.201l1.172 4.904c.445 1.846-.49 4.143-2.098 5.145l-1.033.641c-1.615 1.014-3.759 3.101-4.828 4.662l-1.949 2.883c-1.067 1.576-.672 3.553.859 4.443 1.542.897 2.686 3.138 2.562 5.028l-.187 3.014c-.132 1.882 1.189 3.997 2.928 4.746l4.387 1.833c1.747.729 4.48 2.107 6.095 3.071l3.115 1.856c1.612.964 4.428 1.405 6.282.99l2.731-.624c1.843-.428 4.622.074 6.211 1.115l.471.311c1.589 1.041 3.999.859 5.406-.414l6.229-5.624 4.679-4.81c1.323-1.362 1.783-3.876 1.058-5.617-1.258-3.036-2.949-7.22-2.949-7.76 0-.519 3.044-2.596 5.454-4.156 1.588-1.029 4.367-2.251 6.181-2.751l4.112-1.151c1.821-.519 4.282-2.099 5.509-3.545l1.361-1.616c1.21-1.446 2.251-4.149 2.289-6.05l.055-1.928c.031-1.883 1.457-3.885 3.185-4.479 1.703-.595 4.461-.37 6.145.481l4.395 2.242c1.683.851 4.358.746 5.946-.258l5.017-3.11 9.13-4.486c1.692-.834 3.752-.132 4.603 1.557l1.211 2.428c.849 1.702 2.909 3.744 4.619 4.567l1.76.859c1.692.825 4.227 2.498 5.656 3.763l4.485 3.94 6.002 4.396c1.538 1.104 4.114 2.78 5.738 3.713l1.967 1.115c1.645.926 2.928 3.215 2.844 5.105l-.143 3.44c-.084 1.89-1.589 3.942-3.362 4.593l-2.346.853c-1.775.652-4.555 1.927-6.2 2.854l-4.311 2.431c-1.643.926-1.565 2.278.162 3.033l3.137 1.352c1.731.748 4.642 1.655 6.504 2.012l2.05.399c1.861.366 4.225-.615 5.294-2.165l3.195-4.669 6.445-8.138 3.885-4.301c1.275-1.398 1.541-3.866.595-5.503l-1.284-2.212c-.947-1.634-3.043-3.723-4.689-4.658l-3.043-1.737c-1.643-.949-4.501-1.837-6.389-2.011l-.229-.024c-1.879-.168-4.271-1.577-5.34-3.146l-1.079-1.596c-1.047-1.579-3.05-3.877-4.449-5.154l-4.576-4.149c-1.38-1.279-2.608-3.848-2.722-5.727l-.245-4.085c-.095-1.878.945-2.938 2.373-2.342 1.407.595 3.751 2.029 5.227 3.222l10.83 8.762 5.899 3.893c1.578 1.042 4.301 2.449 6.059 3.129l6.662 2.628c1.778.699 3.101 2.654 2.988 4.359-.132 1.718.187 4.583.701 6.408l.735 2.603c.502 1.826 1.983 4.418 3.27 5.789l2.995 3.155c1.303 1.371 3.195 3.763 4.245 5.34l2.202 3.291c1.049 1.568 3.401 3.111 5.264 3.438l1.816.313c1.871.33 3.61-.796 3.911-2.516.302-1.699 2.07-3.182 3.961-3.296l.652-.037c1.892-.112 2.233-1.143.738-2.334l-1.078-.85c-1.472-1.183-3.091-3.245-3.627-4.604-.533-1.362-1.588-3.479-2.346-4.717-.773-1.238-.718-3.393.107-4.819.823-1.403 2.9-3.169 4.639-3.904l1.198-.519c1.742-.739 4.339-1.342 5.816-1.342 1.492 0 3.63 1.19 4.801 2.673l.662.851c1.191 1.486 2.383 4.112 2.67 5.899.301 1.768 1.244 4.576 2.105 6.239l.71 1.407c.871 1.684 2.512 4.263 3.667 5.767l1.606 2.05c1.141 1.502 3.535 3.241 5.303 3.885l1.277.455c1.776.641 3.825 1.928 4.612 2.872.754.945 2.778 1.067 4.479.257l.643-.293c1.711-.811 3.385-2.47 3.744-3.705.358-1.248 1.645-2.062 2.892-1.815l2.251.427 4.612.963c2.536.535 6.392-.474 8.602-2.245l.548-.437c2.191-1.77 5.767-3.215 7.957-3.215 2.193 0 4.066 1.114 4.181 2.466.113 1.363.208 2.469.208 2.469l.849 8.978 1.55 8.619c.323 1.872.151 4.832-.416 6.647l-2.399 7.853-1.797 4.716c-.681 1.767-2.693 2.846-4.538 2.401l-7.465-1.815c-1.835-.443-4.661-.058-6.309.878l-5.394 3.049c-1.646.926-4.509 1.687-6.409 1.687h-6.198l-17.316-1.277-10.091-1.134c-1.875-.206-3.786-1.182-4.258-2.184-.471-1.012-2.382-1.938-4.272-2.081l-1.947-.141c-1.89-.132-4.897.153-6.73.643l-3.647 1.004c-1.835.482-3.648 2.391-4.063 4.232l-.21 1.022c-.416 1.842.095 4.631 1.098 6.217l.151.237c1.021 1.59.397 3.337-1.417 3.887l-2.456.766c-1.799.548-4.559.179-6.157-.823l-.63-.407c-1.593-1.012-4.406-2.079-6.26-2.387l-7.375-1.234c-1.868-.311-4.127-1.909-5.043-3.562l-.114-.206c-.907-1.653-3.082-3.555-4.838-4.246l-3.47-1.371c-1.768-.679-4.708-1.474-6.569-1.756l-8.43-1.315c-1.873-.274-4.613-1.448-6.125-2.563l-3.705-2.762a3.362 3.362 0 0 1 -.662-4.761l3.537-4.622c1.153-1.502 1.455-3.629.68-4.757-.756-1.116-.756-3.23 0-4.706.773-1.474.019-3.346-1.682-4.175l-2.193-1.061c-1.701-.831-4.574-1.18-6.428-.783l-7.21 1.548c-1.844.407-4.887.718-6.775.718h-26.325c-1.892 0-4.868.502-6.653 1.124l-14.738 5.086-9.818 3.392c-1.796.608-4.763.907-6.635.663l-6.258-.819c-1.88-.251-4.857-.92-6.653-1.514l-2.06-.663c-1.798-.576-4.272.084-5.521 1.503l-7.231 8.15c-1.247 1.416-3.677 3.164-5.416 3.902l-4.187 1.798c-1.748.754-4.167 2.502-5.417 3.93l-4.477 5.122c-1.241 1.419-2.241 4.103-2.241 6.002v4.282c0 1.89-1.21 4.385-2.667 5.586l-7.097 5.736c-1.464 1.192-4.168 2.364-6.048 2.619l-2.629.369c-1.88.234-4.243 1.727-5.292 3.304l-2.203 3.291c-1.04 1.572-3.186 3.687-4.772 4.699l-4.509 2.93c-1.598 1.021-3.337 3.316-3.904 5.122l-.966 3.081c-.556 1.82-2.05 4.415-3.326 5.805l-7.777 8.437c-1.277 1.398-2.968 3.905-3.775 5.62l-1.595 3.427c-.794 1.711-.737 4.467.151 6.132l1.512 2.933c.89 1.662.975 4.367.208 6.011-.764 1.665-1.134 4.519-.813 6.37l.35 2.034c.312 1.859.178 4.866-.312 6.693l-1.87 7.067c-.484 1.825-1.561 4.69-2.374 6.391l-3.45 7.119c-.813 1.699-.737 4.421.172 6.065l.113.219c.926 1.653 1.182 4.453.586 6.246l-1.285 3.914c-.588 1.797-.086 4.425 1.142 5.88l13.857 16.444c1.2 1.438 2.92 3.971 3.81 5.633l8.749 16.219c.89 1.68 2.74 4.064 4.13 5.37l12.116 11.282c1.373 1.306 3.794 3.138 5.41 4.143l11.851 7.256c1.615.983 4.423 1.44 6.267 1.024l13.297-3.044c1.834-.406 4.838-.454 6.692-.095l16.116 3.232c1.852.361 4.696-.074 6.35-.991l9.424-5.248c1.653-.914 4.49-1.981 6.342-2.399l14.413-3.101c1.852-.416 4.519.247 5.983 1.453l5 4.179c1.464 1.212 3.667 3.336 4.934 4.729l5.682 6.341c1.275 1.397 3.799 2.221 5.643 1.825l9.293-1.987c1.842-.405 4.856-.491 6.723-.187l4.069.643c1.873.302 4.538 1.548 5.975 2.776l3.98 3.48c1.405 1.256 2.257 3.76 1.897 5.614l-.927 4.709c-.376 1.851-1.455 4.686-2.381 6.324l-3.451 6.047c-.934 1.635-2.721 3.735-3.988 4.689-1.251.947-1.276 2.881-.065 4.309l12.117 14.209c1.227 1.418 3.365 3.626 4.746 4.913l8.657 7.921c1.382 1.285 2.516 3.854 2.516 5.744v9.131c0 1.892.62 4.82 1.38 6.551l1.804 4.017c.765 1.73 2.316 4.349 3.471 5.834l1.529 1.995c1.155 1.493 1.713 4.215 1.268 6.048l-1.209 4.746c-.445 1.833-1.741 4.559-2.884 6.076l-2.732 3.66c-1.144 1.493-2.644 4.141-3.385 5.896l-4.763 11.361c-.737 1.741-1.34 4.689-1.34 6.588v6.853c0 1.891.945 4.63 2.117 6.122l9.866 12.707 6.861 7.712c1.267 1.417 2.287 4.101 2.287 5.99v11.985c0 1.892 1.189 4.38 2.676 5.56l3.204 2.569c1.494 1.191 3.365 3.505 4.215 5.2l5.502 10.985c.829 1.715 1.511 4.595 1.511 6.49v3.43a3.416 3.416 0 0 0 3.421 3.421h6.296c1.89 0 4.876-.418 6.701-.945l11.106-3.224c1.825-.538 4.82-1.108 6.71-1.275l17.721-1.646c1.881-.187 4.763-1.046 6.417-1.945l8.829-4.744c1.663-.89 4.224-2.543 5.729-3.688l11.095-8.421c1.512-1.145 3.65-3.28 4.801-4.793l8.964-11.672c1.152-1.512 3.267-3.705 4.705-4.925l9.033-7.579c1.439-1.212 3.442-3.497 4.444-5.097l6.05-9.612c1.002-1.608 2.136-4.404 2.534-6.258l2.025-9.83c.376-1.853 1.869-4.339 3.344-5.521l13.535-11.094c1.472-1.182 3.988-2.897 5.632-3.823l9.434-5.234c1.642-.926 3.4-3.138 3.921-4.954l3.28-11.684c.511-1.811.966-4.827 1.021-6.726l.386-14.253c.047-1.895-.122-4.945-.386-6.825-.49-3.724-1.246-9.379-1.246-10.862 0-2.294 1.15-21.114 1.15-22.824 0-1.23 4.424-9.549 6.919-14.121.906-1.665 2.626-4.189 3.846-5.636 3.562-4.279 10.389-12.566 12.066-15.066 2.27-3.42 16.552-22.816 16.552-22.816l9.331-12.136c1.134-1.492 2.666-4.138 3.366-5.887l4.845-11.922c.71-1.747 1.561-4.677 1.92-6.54l5.067-27.431 2.626-17.173c.285-1.86-.945-2.909-2.741-2.306l-10.899 3.564c-1.794.584-4.604 1.796-6.265 2.686l-11.078 5.913c-1.665.89-4.48 2.053-6.294 2.629l-2.609.812c-1.795.549-4.478.095-5.991-1.037l-1.382-1.033c-1.512-1.145-3.552-3.337-4.572-4.935l-4.313-6.775c-1.019-1.59-3.365-2.894-5.255-2.894h-1.146c-1.897 0-4.354-1.229-5.507-2.711l-3.744-4.848c-1.155-1.493-2.894-4.021-3.877-5.655l-3.354-5.555c-.983-1.608-2.921-3.925-4.377-5.162-2.986-2.57-7.675-6.5-8.82-6.899-.934-.294-2.388-2.474-3.486-4.406-.966-1.622-2.117-4.462-2.686-6.254l-1.625-5.013c-.586-1.804-1.796-4.603-2.722-6.256l-2.646-4.748c-.927-1.653-2.779-4.053-4.14-5.347l-7.041-6.693c-1.363-1.314-3.11-3.761-3.923-5.471l-7.959-17.186c-.794-1.719.077-2.88 1.948-2.599l4.65.69c1.871.285 4.366 1.692 5.596 3.12l12.975 15.322c1.225 1.445 3.518 3.421 5.117 4.423l9.886 6.098c1.608.999 2.897 3.33 2.897 5.217v6.75c0 1.89 1.225 4.35 2.737 5.502l8.829 6.785c1.493 1.153 3.538 3.385 4.574 4.963l10.7 16.53 10.059 16.477c.979 1.605 3.23 2.436 5.007 1.814l11.758-4.017 18.45-6.325c1.778-.605 4.179-2.306 5.358-3.799l11.153-14.015c1.182-1.493 3.205-3.772 4.547-5.115l12.853-12.95c1.34-1.343 2.515-3.96 2.644-5.85.588-8.583 2.062-30.473 2.062-31.844 0-1.225.284-9.915.44-14.838.062-1.893-1.289-4.038-3.019-4.783l-5.7-2.44c-1.73-.748-3.828-.189-4.672 1.22-.847 1.426-2.89 1.831-4.533.933l-1.392-.755c-1.654-.907-4.007-2.789-5.266-4.204l-.48-.547c-1.256-1.412-2.9-1.155-3.66.567l-.659 1.445c-.755 1.729-2.165 4.451-3.138 6.076l-.974 1.617c-.971 1.619-3.279 3.241-5.131 3.614l-2.363.469c-1.862.369-3.081-.835-2.711-2.693l.404-2.153a3.32 3.32 0 0 0 -2.731-3.924l-1.579-.274c-1.873-.302-4.725.105-6.359.918-1.64.814-3.963.304-5.171-1.153l-11.189-13.552c-1.193-1.468-2.179-4.171-2.179-6.068v-6.845c0-1.889 1.419-2.854 3.167-2.135l.824.339c1.775.718 4.081 2.535 5.217 4.053l1.83 2.506c1.115 1.512 3.27 3.629 4.839 4.698l3.103 2.135 3.401 2.203c1.587 1.021 4.368 2.2 6.21 2.626l2.959.699c1.852.426 4.575-.12 6.105-1.237l.247-.179c1.512-1.116 4.291-2.118 6.183-2.257l17.702-1.226c1.881-.137 4.773-.977 6.418-1.886l12.816-6.983c1.674-.908 4.159-.624 5.557.634l5.748 5.141c1.416 1.256 4.083 2.079 5.954 1.788 4.975-.764 13.722-2.278 13.722-3.505 0-1.175 4.312-6.94 7.015-10.437 1.153-1.484 2.505-1.201 2.969.634l3.423 13.336c.481 1.833 1.434 4.746 2.134 6.504l6.586 16.475c.689 1.749 2.052 4.498 2.997 6.124l12.523 21.475c.955 1.636 2.204 4.428 2.768 6.229l6.478 20.302c.593 1.796 2.22 4.237 3.658 5.463l5.614 4.728c1.455 1.219 2.354.681 2.024-1.175-1.826-10.406-7.109-41.437-5.693-42.853 1.258-1.249-4.441-9.444-7.653-13.81-1.1-1.521-1.869-4.261-1.656-6.143 1.01-8.81 3.603-31.749 3.603-33.131 0-1.302-4.272-14.469-6.334-20.719-.587-1.796-.642-4.725-.113-6.54l3.77-12.827c.538-1.814 1.787-1.991 2.799-.387l16.889 26.739c1.01 1.596 2.041 2.835 2.31 2.761.259-.075.836 1.37 1.245 3.203 7.111 31.33 10.87 63.913 10.87 97.353 0 242.41-197.211 439.622-439.623 439.622-128.353.003-244.022-55.29-324.468-143.324zm482.665-103.96.719 1.305c.927 1.648 1.623 4.527 1.606 6.416-.008.283-.019.558-.019.85-.019 1.892.672 4.511 1.739 5.599 1.059 1.094 2.911 3.127 4.031 4.629l1.688 2.232c1.127 1.512 2.038 3.876 2.038 5.309 0 1.401-1.234 1.677-2.777.567l-2.559-1.802c-1.532-1.107-3.572-3.301-4.538-4.916l-1.85-3.11c-.966-1.627-1.494-4.451-1.208-6.313l.187-1.172c.321-1.865.349-4.897.076-6.767l-.325-2.423c-.265-1.869.266-2.057 1.192-.404zm25.747-17.421c-1.666.871-4.369 1.721-5.909 1.287-1.551-.473-1.369-3.554-1.472-5.446-.133-2.546-.557-5.395-.122-6.651.642-1.93 3.835-6.011 4.271-6.202.208-.111 1.531-.613 2.892-1.096 1.588-.607 4.377-.708 6.219-.284l2.534.586c1.834.435 3.55 2.306 3.799 4.178l.351 2.41c.263 1.884-.823 4.226-2.428 5.246l-5.454 3.506zm11.312 78.418c0 .679-1.842.242-3.619-.326-1.816-.578-3.629-2.636-4.12-4.461l-2.042-7.353c-.51-1.814-.037-4.553 1.059-6.115l1.417-2.047c1.078-1.555 1.968-4.332 1.968-6.224v-1.285c0-1.892 1.172-3.232 2.541-2.799 1.107.33 2.165.796 2.165 1.299 0 1.065 1.282 11.123 1.282 13.054 0 1.926 1.497 4.703 1.062 7.061-.417 2.359-1.713 7.923-1.713 9.196z" mask="url(#c)"/></g><path d="m300.75 113.322c-4.602 0-18.078.719-26.295 0-4.19-.367-30.053 7.093-40.101 9.646-5.72 1.453 0-1.013 0-1.013 6.793-2.878 23.009-9.305 33.527-11.991 13.148-3.357 44.702-4.076 45.031-2.158.328 1.919-7.56 5.516-12.162 5.516z" fill="#e2e2e2"/><path d="m214.624 58.222 8.456 1.876a61.19 61.19 0 0 0 31.025-.922l6.089-1.791a61.185 61.185 0 0 1 32.581-.54l2.682.732a1.686 1.686 0 0 0 2.076-1.21c.073-.29.068-.594-.015-.882l-11.706-40.648a1.685 1.685 0 0 0 -1.196-1.165l-4.157-1.075a61.184 61.184 0 0 0 -32.581.541l-6.089 1.792a61.19 61.19 0 0 1 -31.025.92l-8.396-1.937z" fill="#000"/><path d="m203.051 14.515a.709.709 0 0 0 -1.366.378zm28.5 108.352a.708.708 0 1 0 1.365-.378zm-16.927-64.645-.683.189c.07.252.273.446.529.502zm8.456 1.876.16-.69-.006-.002zm31.025-.922.2.68zm6.089-1.791-.2-.68zm32.581-.54.186-.684-.009-.003-.177.686zm2.682.732-.186.683zm.882.001.184.684zm.761-.444-.505-.497zm.433-.767.686.174zm-.015-.882-.68.196zm-11.706-40.648-.681.196zm-.443-.741.494-.508zm-.753-.424.178-.686h-.001zm-4.157-1.075-.178.686zm-32.581.541-.2-.68zm-6.089 1.792.2.68zm-31.025.92-.159.691.159-.69zm-8.396-1.937.16-.69a.707.707 0 0 0 -.843.878zm-.683.98 29.866 107.974 1.365-.378-29.865-107.974zm12.785 44.02 8.457 1.876.307-1.383-8.457-1.876zm8.451 1.875a61.898 61.898 0 0 0 31.384-.932l-.4-1.36a60.479 60.479 0 0 1 -30.665.911zm31.384-.932 6.089-1.791-.4-1.36-6.089 1.792.4 1.36zm6.089-1.791a60.476 60.476 0 0 1 32.204-.535l.354-1.372a61.891 61.891 0 0 0 -32.958.547zm32.194-.537 2.683.732.373-1.367-2.683-.732zm2.683.732c.41.112.842.113 1.252.002l-.369-1.368a.975.975 0 0 1 -.51 0zm1.252.002c.41-.11.783-.328 1.082-.63l-1.01-.995a.97.97 0 0 1 -.441.257zm1.081-.63a2.38 2.38 0 0 0 .615-1.091l-1.373-.349a.976.976 0 0 1 -.251.445zm.615-1.091a2.384 2.384 0 0 0 -.02-1.252l-1.361.393a.972.972 0 0 1 .008.51zm-.02-1.252-11.706-40.648-1.362.392 11.707 40.648zm-11.706-40.647a2.394 2.394 0 0 0 -.63-1.053l-.989 1.014c.122.119.21.267.257.43zm-.63-1.053a2.39 2.39 0 0 0 -1.069-.603l-.356 1.371a.974.974 0 0 1 .436.246zm-1.07-.603-4.157-1.075-.355 1.372 4.158 1.075zm-4.157-1.074a61.89 61.89 0 0 0 -32.958.546l.4 1.36a60.472 60.472 0 0 1 32.203-.535zm-32.958.546-6.089 1.792.4 1.36 6.089-1.792zm-6.089 1.792a60.482 60.482 0 0 1 -30.666.91l-.318 1.381a61.899 61.899 0 0 0 31.384-.932zm-30.665.91-8.396-1.938-.319 1.38 8.396 1.94zm-9.239-1.059 12.256 44.31 1.366-.378-12.256-44.31z" fill="#000"/><path d="m249.516 29.783a1.266 1.266 0 1 0 -2.504.382l.89 5.842-5.842.89a1.267 1.267 0 0 0 .381 2.505l5.843-.89.89 5.842a1.267 1.267 0 0 0 2.504-.382l-.89-5.842 5.843-.89a1.267 1.267 0 0 0 -.382-2.505l-5.843.89z" fill="#fff"/><path clip-rule="evenodd" d="m246.547 18.706c-10.142 1.545-17.11 11.02-15.565 21.16 1.546 10.142 11.02 17.11 21.161 15.565 10.142-1.545 17.11-11.02 15.565-21.16-1.545-10.142-11.02-17.11-21.161-15.565zm-13.061 20.78c-1.334-8.76 4.684-16.942 13.442-18.276 8.759-1.335 16.941 4.683 18.276 13.442 1.335 8.758-4.684 16.94-13.442 18.275-8.759 1.335-16.941-4.683-18.276-13.442z" fill="#fff" fill-rule="evenodd"/><path d="m226.26 20.09-.047-.313-.313.047.047.313zm40.065-6.105.313-.048-.048-.313-.313.048zm6.105 40.064.048.313.313-.048-.048-.313zm-40.064 6.105-.313.048.047.313.313-.048zm-6.058-39.751 40.065-6.105-.096-.626-40.064 6.105zm39.704-6.37 6.105 40.064.626-.096-6.105-40.064-.626.095zm6.37 39.703-40.064 6.105.095.626 40.065-6.105zm-39.703 6.37-6.105-40.064-.627.095 6.106 40.065z" fill="#000"/></g></svg>